<svg width="119" height="20" viewBox="0 0 119 20" fill="none" xmlns="http://www.w3.org/2000/svg">
<path d="M14.1495 1.50358V4.86923H9.398V19H5.14144V4.86923H0.439434V1.50358H14.1495ZM24.6938 5.04246C26.2777 5.04246 27.5315 5.57041 28.4554 6.6263C29.3958 7.68219 29.866 9.13403 29.866 10.9818V19H25.6342V11.4768C25.6342 10.5529 25.3868 9.83521 24.8918 9.32376C24.4134 8.79582 23.7699 8.53185 22.9615 8.53185C22.1036 8.53185 21.4189 8.80407 20.9075 9.34851C20.4125 9.89295 20.165 10.6684 20.165 11.6748V19H15.9332V0.686919H20.165V7.71518C20.561 6.89027 21.1467 6.23859 21.9221 5.76014C22.714 5.28169 23.6379 5.04246 24.6938 5.04246ZM37.9035 5.01772C38.9594 5.01772 39.8668 5.25694 40.6257 5.73539C41.3847 6.21384 41.9456 6.86552 42.3086 7.69044V5.19095H46.5156V19H42.3086V16.5005C41.9456 17.3254 41.3847 17.9771 40.6257 18.4556C39.8668 18.934 38.9594 19.1732 37.9035 19.1732C36.7651 19.1732 35.7423 18.8928 34.8348 18.3318C33.9439 17.7544 33.2345 16.9295 32.7066 15.8571C32.1951 14.7847 31.9394 13.5308 31.9394 12.0955C31.9394 10.6436 32.1951 9.38976 32.7066 8.33387C33.2345 7.26148 33.9439 6.44482 34.8348 5.88387C35.7423 5.30644 36.7651 5.01772 37.9035 5.01772ZM39.2646 8.72983C38.3572 8.72983 37.6231 9.02679 37.0621 9.62073C36.5177 10.2147 36.2455 11.0396 36.2455 12.0955C36.2455 13.1514 36.5177 13.9763 37.0621 14.5702C37.6231 15.1642 38.3572 15.4611 39.2646 15.4611C40.1555 15.4611 40.8815 15.1559 41.4424 14.5455C42.0198 13.935 42.3086 13.1184 42.3086 12.0955C42.3086 11.0561 42.0198 10.2394 41.4424 9.64548C40.8815 9.03504 40.1555 8.72983 39.2646 8.72983ZM57.2494 15.3621V19H55.3439C53.727 19 52.4649 18.604 51.5575 17.8121C50.6666 17.0037 50.2212 15.6756 50.2212 13.8278V8.75457H48.3651V5.19095H50.2212V1.80055H54.453V5.19095H57.2247V8.75457H54.453V13.902C54.453 14.4465 54.5602 14.8259 54.7747 15.0404C55.0057 15.2549 55.3851 15.3621 55.9131 15.3621H57.2494ZM64.6516 5.01772C66.4004 5.01772 67.7945 5.45492 68.8339 6.32933C69.8898 7.20374 70.5497 8.35861 70.8137 9.79396H66.8541C66.7386 9.23302 66.4747 8.79582 66.0622 8.48235C65.6662 8.15239 65.1631 7.9874 64.5526 7.9874C64.0742 7.9874 63.7112 8.09464 63.4637 8.30912C63.2163 8.5071 63.0925 8.79582 63.0925 9.17528C63.0925 9.60423 63.3152 9.92595 63.7607 10.1404C64.2227 10.3549 64.9403 10.5694 65.9137 10.7839C66.9696 11.0313 67.8358 11.2871 68.5122 11.551C69.1886 11.7985 69.7743 12.211 70.2693 12.7884C70.7642 13.3658 71.0117 14.1413 71.0117 15.1147C71.0117 15.9066 70.7972 16.6078 70.3683 17.2182C69.9393 17.8286 69.3206 18.3071 68.5122 18.6535C67.7038 19 66.7469 19.1732 65.6415 19.1732C63.7772 19.1732 62.2841 18.7608 61.1622 17.9359C60.0403 17.1109 59.3557 15.9313 59.1082 14.397H63.1915C63.2575 14.9909 63.505 15.4446 63.9339 15.7581C64.3794 16.0716 64.9486 16.2283 65.6415 16.2283C66.12 16.2283 66.4829 16.1211 66.7304 15.9066C66.9779 15.6756 67.1016 15.3786 67.1016 15.0157C67.1016 14.5372 66.8706 14.199 66.4087 14.001C65.9632 13.7865 65.229 13.5638 64.2062 13.3328C63.1833 13.1184 62.3418 12.8874 61.6819 12.6399C61.022 12.3924 60.4528 11.9965 59.9743 11.452C59.4959 10.8911 59.2567 10.1322 59.2567 9.17528C59.2567 7.93791 59.7269 6.93976 60.6673 6.18084C61.6077 5.40542 62.9358 5.01772 64.6516 5.01772ZM76.9928 14.7682V19H72.6125V14.7682H76.9928ZM97.0958 5.04246C98.7952 5.04246 100.132 5.57041 101.105 6.6263C102.078 7.66569 102.565 9.11754 102.565 10.9818V19H98.358V11.4768C98.358 10.6024 98.1187 9.92595 97.6403 9.4475C97.1783 8.95255 96.5431 8.70508 95.7347 8.70508C94.8933 8.70508 94.2251 8.96905 93.7302 9.497C93.2517 10.0084 93.0125 10.7344 93.0125 11.6748V19H88.7807V11.4768C88.7807 10.6024 88.5497 9.92595 88.0878 9.4475C87.6258 8.95255 86.9906 8.70508 86.1822 8.70508C85.3408 8.70508 84.6726 8.9608 84.1777 9.47225C83.6827 9.98369 83.4353 10.7179 83.4353 11.6748V19H79.2035V5.19095H83.4353V7.54195C83.7982 6.76653 84.3509 6.1561 85.0933 5.71064C85.8523 5.26519 86.7349 5.04246 87.7413 5.04246C88.7972 5.04246 89.7294 5.28994 90.5378 5.78488C91.3462 6.26333 91.9566 6.95626 92.3691 7.86367C92.8475 7.00576 93.4992 6.32108 94.3241 5.80963C95.1655 5.29819 96.0894 5.04246 97.0958 5.04246ZM118.493 11.7243C118.493 12.0707 118.452 12.4502 118.369 12.8626H108.792C108.841 13.902 109.105 14.6527 109.584 15.1147C110.062 15.5601 110.673 15.7828 111.415 15.7828C112.042 15.7828 112.562 15.6261 112.974 15.3126C113.387 14.9992 113.659 14.595 113.791 14.1H118.27C118.089 15.0734 117.693 15.9478 117.082 16.7232C116.472 17.4822 115.696 18.0843 114.756 18.5298C113.816 18.9588 112.768 19.1732 111.613 19.1732C110.26 19.1732 109.056 18.8928 108 18.3318C106.961 17.7544 106.144 16.9295 105.55 15.8571C104.956 14.7847 104.659 13.5308 104.659 12.0955C104.659 10.6436 104.948 9.38976 105.525 8.33387C106.119 7.26148 106.944 6.44482 108 5.88387C109.056 5.30644 110.26 5.01772 111.613 5.01772C112.982 5.01772 114.187 5.29819 115.226 5.85913C116.266 6.42007 117.066 7.21199 117.627 8.23488C118.204 9.24127 118.493 10.4044 118.493 11.7243ZM114.212 11.0808C114.228 10.1734 113.981 9.497 113.469 9.05154C112.974 8.58959 112.356 8.35862 111.613 8.35862C110.838 8.35862 110.194 8.58959 109.683 9.05154C109.171 9.51349 108.883 10.1899 108.817 11.0808H114.212Z" fill="#2769B6"/>
</svg>
