<svg width="32" height="27" viewBox="0 0 32 27" fill="none" xmlns="http://www.w3.org/2000/svg">
<path fill-rule="evenodd" clip-rule="evenodd" d="M28.2289 4.79085C29.5849 3.97544 30.6259 2.68564 31.1159 1.14811C29.8479 1.90233 28.4419 2.44995 26.9469 2.74582C25.7489 1.46604 24.0429 0.666687 22.1549 0.666687C18.529 0.666687 15.59 3.61438 15.59 7.2511C15.59 7.76662 15.648 8.26911 15.76 8.75153C10.303 8.47672 5.46599 5.85499 2.22799 1.87124C1.663 2.84411 1.339 3.97544 1.339 5.182C1.339 7.46574 2.49799 9.48168 4.25899 10.6622C3.18299 10.6281 2.17099 10.3322 1.286 9.83873C1.285 9.86682 1.285 9.8939 1.285 9.92198C1.285 13.1124 3.54799 15.7732 6.55198 16.378C6.00098 16.5285 5.42099 16.6087 4.82199 16.6087C4.39899 16.6087 3.98799 16.5676 3.58699 16.4914C4.42199 19.1071 6.84698 21.0107 9.71998 21.0638C7.47298 22.83 4.64199 23.8821 1.566 23.8821C1.036 23.8821 0.513999 23.8511 0 23.7909C2.90499 25.6584 6.35598 26.7486 10.064 26.7486C22.1399 26.7486 28.7429 16.715 28.7429 8.01435C28.7429 7.72851 28.7369 7.44467 28.7239 7.16184C30.0069 6.2341 31.1199 5.07469 31.9999 3.75379C30.8229 4.27733 29.5569 4.63138 28.2289 4.79085Z" fill="#1B1B20"/>
</svg>
