<svg width="33" height="32" viewBox="0 0 33 32" fill="none" xmlns="http://www.w3.org/2000/svg">
<path fill-rule="evenodd" clip-rule="evenodd" d="M27.6025 27.2674H22.8574V19.8399C22.8574 18.0692 22.8253 15.7919 20.3896 15.7919C17.9219 15.7919 17.545 17.7225 17.545 19.7136V27.2674H12.8034V11.9963H17.3512V14.0834H17.417C18.0517 12.8834 19.5985 11.6177 21.908 11.6177C26.7154 11.6177 27.6025 14.7785 27.6025 18.8923V27.2674ZM7.45213 9.91103C5.92682 9.91103 4.69661 8.67726 4.69661 7.15726C4.69661 5.63904 5.92682 4.40526 7.45213 4.40526C8.96855 4.40526 10.2023 5.63904 10.2023 7.15726C10.2023 8.67726 8.96855 9.91103 7.45213 9.91103ZM5.0734 27.2675H9.82552V11.9964H5.0734V27.2675ZM29.9654 0H2.69274C1.39133 0 0.333496 1.03289 0.333496 2.30756V29.6907C0.333496 30.9653 1.39133 32 2.69274 32H29.9654C31.2703 32 32.3335 30.9653 32.3335 29.6907V2.30756C32.3335 1.03289 31.2703 0 29.9654 0Z" fill="#8D8D95"/>
</svg>
