<svg width="33" height="23" viewBox="0 0 33 23" fill="none" xmlns="http://www.w3.org/2000/svg">
<path fill-rule="evenodd" clip-rule="evenodd" d="M13.3625 15.7828L13.3615 6.76518L22.0075 11.2895L13.3625 15.7828ZM32.3465 5.20261C32.3465 5.20261 32.0335 2.99109 31.0745 2.01722C29.8575 0.738447 28.4935 0.732429 27.8685 0.65821C23.3905 0.333252 16.6735 0.333252 16.6735 0.333252H16.6595C16.6595 0.333252 9.9425 0.333252 5.4645 0.65821C4.8385 0.732429 3.4755 0.738447 2.2575 2.01722C1.2985 2.99109 0.986504 5.20261 0.986504 5.20261C0.986504 5.20261 0.666504 7.80027 0.666504 10.3969V12.8321C0.666504 15.4298 0.986504 18.0264 0.986504 18.0264C0.986504 18.0264 1.2985 20.2379 2.2575 21.2118C3.4755 22.4906 5.0745 22.4505 5.7865 22.5839C8.3465 22.8306 16.6665 22.9068 16.6665 22.9068C16.6665 22.9068 23.3905 22.8968 27.8685 22.5718C28.4935 22.4966 29.8575 22.4906 31.0745 21.2118C32.0335 20.2379 32.3465 18.0264 32.3465 18.0264C32.3465 18.0264 32.6665 15.4298 32.6665 12.8321V10.3969C32.6665 7.80027 32.3465 5.20261 32.3465 5.20261Z" fill="#8D8D95"/>
</svg>
